<mxfile host="app.diagrams.net" agent="Mozilla/5.0 (Windows NT 10.0; Win64; x64) AppleWebKit/537.36 (KHTML, like Gecko) Chrome/129.0.0.0 Safari/537.36 Edg/129.0.0.0" version="24.7.17">
  <diagram name="Page-1" id="IZ997oUdilexwLLzvvGH">
    <mxGraphModel dx="1542" dy="715" grid="1" gridSize="10" guides="1" tooltips="1" connect="1" arrows="1" fold="1" page="1" pageScale="1" pageWidth="2339" pageHeight="3300" math="0" shadow="0">
      <root>
        <mxCell id="0" />
        <mxCell id="1" parent="0" />
        <mxCell id="0RGWWF2EVE3LepTlG2qa-8" value="" style="rounded=0;whiteSpace=wrap;html=1;" vertex="1" parent="1">
          <mxGeometry x="600" y="80" width="390" height="530" as="geometry" />
        </mxCell>
        <mxCell id="0RGWWF2EVE3LepTlG2qa-1" value="During Dotnet Application deployment/service-up" style="rounded=0;whiteSpace=wrap;html=1;" vertex="1" parent="1">
          <mxGeometry x="640" y="120" width="320" height="60" as="geometry" />
        </mxCell>
        <mxCell id="0RGWWF2EVE3LepTlG2qa-5" value="service-bus-instance-use" style="rounded=1;whiteSpace=wrap;html=1;" vertex="1" parent="1">
          <mxGeometry x="720" y="270" width="160" height="30" as="geometry" />
        </mxCell>
        <mxCell id="0RGWWF2EVE3LepTlG2qa-6" value="&lt;span style=&quot;font-weight: 400;&quot;&gt;service-bus-instance-weu&lt;/span&gt;" style="rounded=1;whiteSpace=wrap;html=1;fontStyle=1" vertex="1" parent="1">
          <mxGeometry x="720" y="350" width="160" height="30" as="geometry" />
        </mxCell>
        <mxCell id="0RGWWF2EVE3LepTlG2qa-7" value="&lt;span style=&quot;font-weight: 400;&quot;&gt;service-bus-instance-sea&lt;/span&gt;" style="rounded=1;whiteSpace=wrap;html=1;fontStyle=1" vertex="1" parent="1">
          <mxGeometry x="720" y="430" width="160" height="30" as="geometry" />
        </mxCell>
        <mxCell id="0RGWWF2EVE3LepTlG2qa-9" value="Application" style="text;html=1;align=center;verticalAlign=middle;whiteSpace=wrap;rounded=0;" vertex="1" parent="1">
          <mxGeometry x="920" y="570" width="60" height="30" as="geometry" />
        </mxCell>
        <mxCell id="0RGWWF2EVE3LepTlG2qa-11" value="" style="endArrow=classic;html=1;rounded=0;" edge="1" parent="1" target="0RGWWF2EVE3LepTlG2qa-5">
          <mxGeometry width="50" height="50" relative="1" as="geometry">
            <mxPoint x="200" y="290" as="sourcePoint" />
            <mxPoint x="250" y="260" as="targetPoint" />
          </mxGeometry>
        </mxCell>
        <mxCell id="0RGWWF2EVE3LepTlG2qa-12" value="Token has USE" style="text;html=1;align=center;verticalAlign=middle;whiteSpace=wrap;rounded=0;" vertex="1" parent="1">
          <mxGeometry x="200" y="250" width="230" height="30" as="geometry" />
        </mxCell>
        <mxCell id="0RGWWF2EVE3LepTlG2qa-13" value="" style="endArrow=classic;html=1;rounded=0;" edge="1" parent="1">
          <mxGeometry width="50" height="50" relative="1" as="geometry">
            <mxPoint x="200" y="370" as="sourcePoint" />
            <mxPoint x="720" y="366" as="targetPoint" />
          </mxGeometry>
        </mxCell>
        <mxCell id="0RGWWF2EVE3LepTlG2qa-14" value="Token has WEU" style="text;html=1;align=center;verticalAlign=middle;whiteSpace=wrap;rounded=0;" vertex="1" parent="1">
          <mxGeometry x="200" y="330" width="230" height="30" as="geometry" />
        </mxCell>
        <mxCell id="0RGWWF2EVE3LepTlG2qa-15" value="" style="endArrow=classic;html=1;rounded=0;" edge="1" parent="1">
          <mxGeometry width="50" height="50" relative="1" as="geometry">
            <mxPoint x="200" y="460" as="sourcePoint" />
            <mxPoint x="720" y="456" as="targetPoint" />
          </mxGeometry>
        </mxCell>
        <mxCell id="0RGWWF2EVE3LepTlG2qa-16" value="Token has SEA" style="text;html=1;align=center;verticalAlign=middle;whiteSpace=wrap;rounded=0;" vertex="1" parent="1">
          <mxGeometry x="200" y="420" width="230" height="30" as="geometry" />
        </mxCell>
        <mxCell id="0RGWWF2EVE3LepTlG2qa-17" value="&lt;b&gt;&lt;i&gt;3 instances of service bus should be initiated as singleton during program startup&lt;/i&gt;&lt;/b&gt;" style="text;html=1;align=center;verticalAlign=middle;whiteSpace=wrap;rounded=0;" vertex="1" parent="1">
          <mxGeometry x="660" y="480" width="310" height="30" as="geometry" />
        </mxCell>
        <mxCell id="0RGWWF2EVE3LepTlG2qa-18" value="" style="endArrow=classic;html=1;rounded=0;" edge="1" parent="1" target="0RGWWF2EVE3LepTlG2qa-20">
          <mxGeometry width="50" height="50" relative="1" as="geometry">
            <mxPoint x="880" y="290" as="sourcePoint" />
            <mxPoint x="1240" y="290" as="targetPoint" />
          </mxGeometry>
        </mxCell>
        <mxCell id="0RGWWF2EVE3LepTlG2qa-20" value="Sends Notification" style="text;html=1;align=center;verticalAlign=middle;whiteSpace=wrap;rounded=0;" vertex="1" parent="1">
          <mxGeometry x="1210" y="275" width="60" height="30" as="geometry" />
        </mxCell>
        <mxCell id="0RGWWF2EVE3LepTlG2qa-21" value="" style="endArrow=classic;html=1;rounded=0;" edge="1" parent="1" target="0RGWWF2EVE3LepTlG2qa-22">
          <mxGeometry width="50" height="50" relative="1" as="geometry">
            <mxPoint x="880" y="365" as="sourcePoint" />
            <mxPoint x="1240" y="365" as="targetPoint" />
          </mxGeometry>
        </mxCell>
        <mxCell id="0RGWWF2EVE3LepTlG2qa-22" value="Sends Notification" style="text;html=1;align=center;verticalAlign=middle;whiteSpace=wrap;rounded=0;" vertex="1" parent="1">
          <mxGeometry x="1210" y="350" width="60" height="30" as="geometry" />
        </mxCell>
        <mxCell id="0RGWWF2EVE3LepTlG2qa-23" value="" style="endArrow=classic;html=1;rounded=0;" edge="1" parent="1" target="0RGWWF2EVE3LepTlG2qa-24">
          <mxGeometry width="50" height="50" relative="1" as="geometry">
            <mxPoint x="880" y="445" as="sourcePoint" />
            <mxPoint x="1240" y="445" as="targetPoint" />
          </mxGeometry>
        </mxCell>
        <mxCell id="0RGWWF2EVE3LepTlG2qa-24" value="Sends Notification" style="text;html=1;align=center;verticalAlign=middle;whiteSpace=wrap;rounded=0;" vertex="1" parent="1">
          <mxGeometry x="1210" y="430" width="60" height="30" as="geometry" />
        </mxCell>
        <mxCell id="0RGWWF2EVE3LepTlG2qa-25" value="" style="endArrow=classic;html=1;rounded=0;" edge="1" parent="1">
          <mxGeometry width="50" height="50" relative="1" as="geometry">
            <mxPoint x="200" y="220" as="sourcePoint" />
            <mxPoint x="1210" y="220" as="targetPoint" />
          </mxGeometry>
        </mxCell>
        <mxCell id="0RGWWF2EVE3LepTlG2qa-27" value="&lt;b&gt;No Token?&lt;/b&gt;&lt;br&gt;&lt;br&gt;Case when we turnoff A&amp;amp;A on local during developement" style="text;html=1;align=center;verticalAlign=middle;whiteSpace=wrap;rounded=0;" vertex="1" parent="1">
          <mxGeometry x="270" y="140" width="210" height="90" as="geometry" />
        </mxCell>
        <mxCell id="0RGWWF2EVE3LepTlG2qa-28" value="&lt;font style=&quot;font-size: 36px;&quot;&gt;?&lt;/font&gt;" style="text;html=1;align=center;verticalAlign=middle;whiteSpace=wrap;rounded=0;" vertex="1" parent="1">
          <mxGeometry x="780" y="200" width="60" height="30" as="geometry" />
        </mxCell>
      </root>
    </mxGraphModel>
  </diagram>
</mxfile>
